<?xml version="1.0" encoding="UTF-8"?>
<svg width="70px" height="70px" viewBox="0 0 70 70" version="1.1" xmlns="http://www.w3.org/2000/svg" xmlns:xlink="http://www.w3.org/1999/xlink">
    <!-- Generator: Sketch 48.2 (47327) - http://www.bohemiancoding.com/sketch -->
    <title>Gardener-Placeholder</title>
    <desc>Created with Sketch.</desc>
    <defs>
        <path d="M18.78125,0 C15.507813,0 13.816406,4.425781 12.03125,9.125 C11.429688,10.703125 10.828125,12.316406 10.15625,13.75 C14.367188,12.296875 19.425781,11.46875 25,11.46875 C30.628906,11.46875 35.734375,12.300781 39.96875,13.78125 C39.371094,12.472656 38.804688,11.03125 38.25,9.59375 C36.347656,4.664063 34.550781,0 31.21875,0 C29.644531,0 28.539063,0.898438 27.5625,1.6875 C26.703125,2.382813 25.96875,2.96875 25,2.96875 C24.03125,2.96875 23.296875,2.382813 22.4375,1.6875 C21.460938,0.898438 20.355469,0 18.78125,0 Z M25,13.46875 C10.980469,13.46875 0,19.019531 0,26.125 C0,30.554688 4.332031,34.566406 11.625,36.875 C14.316406,43.175781 18.460938,50 25,50 C31.539063,50 35.683594,43.148438 38.375,36.84375 C45.660156,34.535156 50,30.550781 50,26.125 C50,19.019531 39.019531,13.46875 25,13.46875 Z M25,22 C36.429688,22 37.882813,24.972656 38,25.25 L38,27.625 L39.15625,27.46875 C39.164063,27.46875 39.878906,27.386719 40.375,27.8125 C40.894531,28.261719 41,29.148438 41,29.8125 C41,31.261719 39.921875,32.445313 38.5,32.59375 L37.90625,32.65625 L37.6875,33.25 C33.914063,43.179688 29.753906,48 25,48 C20.246094,48 16.113281,43.179688 12.34375,33.25 L12.125,32.65625 L11.5,32.59375 C10.070313,32.449219 9,31.265625 9,29.8125 C9,28.902344 9.214844,28.246094 9.625,27.875 C10.140625,27.410156 10.871094,27.472656 10.875,27.46875 L12,27.59375 L12,25.28125 C12.144531,24.914063 13.671875,22 25,22 Z" id="path-1"></path>
    </defs>
    <g id="Web-Dashboard" stroke="none" stroke-width="1" fill="none" fill-rule="evenodd" transform="translate(-13.000000, -927.000000)">
        <g id="SideMenu">
            <g id="Gardener-Placeholder" transform="translate(13.000000, 927.000000)">
                <circle id="Oval" fill="#E3F2FD" cx="35" cy="35" r="35"></circle>
                <g id="icons8-gardener" transform="translate(10.000000, 10.000000)">
                    <mask id="mask-2" fill="white">
                        <use xlink:href="#path-1"></use>
                    </mask>
                    <use fill="#000000" fill-rule="nonzero" xlink:href="#path-1"></use>
                    <g id="Fill/Primary/Light" mask="url(#mask-2)" fill="#64B5F6" fill-rule="evenodd">
                        <rect id="Rectangle-2" x="0" y="0" width="50" height="50"></rect>
                    </g>
                </g>
            </g>
        </g>
    </g>
</svg>