<?xml version="1.0" encoding="UTF-8"?>
<svg width="74px" height="86px" viewBox="0 0 74 86" version="1.1" xmlns="http://www.w3.org/2000/svg" xmlns:xlink="http://www.w3.org/1999/xlink">
    <!-- Generator: Sketch 48.2 (47327) - http://www.bohemiancoding.com/sketch -->
    <title>icons8-bumblebee_filled</title>
    <desc>Created with Sketch.</desc>
    <defs>
        <path d="M19.9230769,0.00010260214 C18.8691949,0.00010260214 18.0166909,0.154097496 17.2917271,0.375046483 C24.0177802,2.55775636 31.3748194,6.72231074 36.3555878,14.0872798 L36.892598,14.890731 C36.946299,14.877341 37,14.8505593 37.053701,14.8371676 C37.583999,14.7233458 38.0471698,14.7099541 38.5573295,14.6229139 C33.5497106,2.06898894 24.9441219,0.00010260214 19.9230769,0.00010260214 Z M61.8635704,0.00010260214 C61.8635704,0.00010260214 59.8497823,0.0201889671 57.4600871,0.482173306 C55.0703919,0.944157301 52.1906753,1.76100018 50.2641509,4.01735846 C49.8882438,4.43917076 49.7472791,5.02167329 49.8882438,5.5706974 L51.0696662,10.070024 C50.9891147,10.1302824 50.9354136,10.2240192 50.8548621,10.2842776 C50.6937591,10.4047961 50.5259438,10.4784445 50.371553,10.6056581 C50.3111398,10.6525265 50.2708631,10.7194799 50.2104499,10.7663483 C49.5593255,11.3086774 48.9484761,11.9045717 48.3846154,12.5875043 C48.3644771,12.607591 48.3443405,12.620981 48.3309144,12.6410677 C48.042271,12.9758399 47.7737659,13.3039154 47.5253991,13.6587725 C47.5119747,13.6788592 47.4851242,13.6922492 47.4716981,13.7123359 C47.2367557,14.0471081 47.0286656,14.428747 46.8272859,14.7836042 C46.2298625,15.7745273 45.7532656,16.7989271 45.4310595,17.8367186 C43.0816409,17.5153382 40.5979681,17.61577 37.7518142,18.2116625 C35.1674533,18.807555 32.9589994,19.8319566 30.9854862,21.1576501 L29.8040639,21.9611013 C26.0852694,24.9070889 23.6083087,29.3126804 22.3933237,35.1377005 C14.700654,39.7776306 10.3105951,47.8523158 10.3105951,57.4200797 C10.3105951,75.3437359 24.1990199,83.3581626 28.4615385,85.3801805 C28.6964808,85.4873073 28.9582737,85.5408707 29.2133527,85.5408707 C32.9321489,85.5408707 52.915639,80.2514847 53.4325109,56.9915724 C56.6277213,54.855731 60.7022864,51.91644 62.2931785,46.4395804 C63.212808,43.3262075 63.3470605,39.5700737 62.7764877,36.0482785 C66.4013062,36.3094006 69.8113208,35.7737665 71.9056604,33.370108 C71.9257987,33.3500213 71.9392231,33.3366313 71.9593614,33.3165445 C72.2412926,32.9750774 72.4896594,32.6269152 72.7111756,32.2452763 C72.9125553,31.9038091 73.1005088,31.542257 73.2481858,31.1740081 C73.2616119,31.1405314 73.2884624,31.100358 73.3018868,31.0668813 C73.4495654,30.6986324 73.5234031,30.3303852 73.6240929,29.9420496 C73.6308051,29.9085729 73.6710817,29.8683995 73.6777939,29.8349228 C73.7784837,29.4331972 73.838897,29.0180816 73.892598,28.6029643 C73.8993102,28.5694876 73.8858858,28.5293142 73.892598,28.4958375 C73.9395868,28.0740252 73.9932878,27.6455179 74,27.2103156 C74,27.1768389 74,27.1366655 74,27.1031888 C74,26.6813765 73.9798617,26.2461742 73.946299,25.8176669 C73.9395868,25.7641035 73.9530112,25.7105401 73.946299,25.6569767 C73.9328746,25.5163732 73.9127363,25.3757697 73.892598,25.2284694 C73.8523231,24.8936989 73.7919081,24.5522318 73.7314949,24.2107646 C73.6509434,23.7554756 73.5771041,23.2800999 73.4629898,22.8181159 C73.4562776,22.7846392 73.416001,22.7444658 73.4092888,22.7109891 C73.3421634,22.443172 73.2750363,22.175355 73.1944848,21.9075379 C73.1273593,21.6798943 73.0602322,21.4388589 72.9796807,21.2112136 C72.8118655,20.7291428 72.5970614,20.2470721 72.3889695,19.7650014 C72.3822573,19.7516114 72.3956817,19.7248297 72.3889695,19.711438 C71.9593614,18.7205149 71.4290634,17.7295918 70.8316401,16.7654504 C70.5362845,16.2900747 70.200654,15.8347857 69.8650218,15.3728017 C69.8583096,15.3594117 69.871734,15.33263 69.8650218,15.3192383 C69.5361035,14.8639493 69.1534842,14.4153553 68.7910015,13.980153 C68.4016699,13.518169 67.9854862,13.07627 67.5558781,12.6410677 C67.1396961,12.2125604 66.7235123,11.8041398 66.2670537,11.4091092 C65.9448476,11.1279022 65.5823666,10.8533884 65.2467344,10.6056581 C65.1728951,10.5520947 65.1057697,10.4985313 65.0319303,10.4449678 C64.9379544,10.3780144 64.8641151,10.2976693 64.7634253,10.2307142 C65.3809869,10.1369791 66.0253991,10.0834157 66.6429608,10.070024 C68.5896235,10.0298523 70.1872279,10.2842776 70.1872279,10.2842776 C71.1337078,10.4315778 72.0264885,9.7821202 72.1741655,8.8380655 C72.3218441,7.8940108 71.670718,7.00351951 70.724238,6.85621927 C70.724238,6.85621927 68.8514147,6.59509721 66.5892598,6.64196563 C64.5150585,6.68213904 62.0179612,6.89639269 59.9840348,8.19530456 C59.7289559,8.14174115 59.4940135,8.12165444 59.2322206,8.08817774 C59.1046803,8.06809103 58.9838538,8.04800604 58.8563135,8.03461433 C58.4804064,8.00113762 58.1044993,7.98105091 57.7285922,7.98105091 C57.4265244,7.98105091 57.1110305,8.01452762 56.8156749,8.03461433 C56.2316759,8.08148274 55.661103,8.16852285 55.0972424,8.30243138 C54.8153129,8.3693865 54.5132434,8.42964491 54.2380261,8.51668503 L53.4862119,5.83851445 C54.6206454,4.91454646 56.3592163,4.14457199 58.1044993,3.80310482 C60.1384257,3.40807423 61.8635704,3.42816094 61.8635704,3.42816094 C62.4811321,3.43485594 63.0584189,3.11347547 63.373911,2.57784135 C63.6826927,2.04220724 63.6826927,1.3860563 63.373911,0.850422188 C63.0584189,0.314788073 62.4811321,-0.0065928243 61.8635704,0.00010260214 Z M5.15529753,1.71413177 C0,1.71413177 0,5.97242298 0,8.24886797 C0,15.7075739 4.57129855,30.18978 18.0972424,33.9057421 C18.5134261,33.5910566 18.9497464,33.2897628 19.3860668,32.9951641 C20.8695569,27.0563204 23.6351592,22.4699537 27.6560232,19.2829307 L27.7634253,19.1758039 L27.8708273,19.1222405 L28.4078374,18.7472966 L29.0522496,18.3187893 C30.4350517,17.3881246 31.8916913,16.5846735 33.4557329,15.9619992 C25.9174524,4.81411464 12.1095791,1.71413177 5.15529753,1.71413177 Z M63.2060958,13.7123359 C63.3604866,13.6989459 63.5283019,13.7123359 63.6894049,13.7123359 C63.796807,13.7993761 63.904209,13.8864179 64.011611,13.980153 C66.7839256,16.3972015 68.6970255,19.4235343 69.7039187,22.3360452 C69.4018509,23.4541818 68.7977136,24.3714548 68.0391872,24.8535255 C66.1462273,26.2260875 62.011249,24.5321451 60.467344,21.9611013 C58.9234406,19.5641395 59.0912559,15.9486092 61.3265602,14.4086603 C61.8837087,14.0203264 62.5415453,13.7792911 63.2060958,13.7123359 Z M42.4775036,21.0505233 C43.3098694,21.0304366 44.1153846,21.1107817 44.8940493,21.2112136 C44.7933595,24.8602205 46.296988,28.4355791 49.4049347,31.1204447 C49.7741296,31.4418251 50.1768872,31.7431189 50.586357,32.0310227 C50.7273218,32.1314545 50.8682882,32.2051046 51.0159652,32.2988397 C52.1503987,33.0487275 53.3855221,33.6914884 54.7213353,34.2271225 C55.1442312,34.3945078 55.5738393,34.5618947 56.0101597,34.7091932 C56.6142969,34.9167519 57.2184325,35.0841371 57.8359942,35.2448274 C58.2924528,35.3653459 58.7690498,35.4724727 59.2322206,35.5662078 C60.0578742,39.4160785 59.7021054,43.1655173 59.0174165,45.475439 C58.9771416,45.6227392 58.9033023,45.7566477 58.8563135,45.9039462 C48.1966618,45.2410986 41.6854145,39.6838955 38.7184325,36.369659 C35.1943038,32.4327483 33.0462631,27.7392548 32.9724238,23.8893841 C34.5767421,22.8382026 36.4092888,22.0146647 38.5036284,21.532594 C39.9401315,21.2313003 41.2356681,21.077305 42.4775036,21.0505233 Z M22.6618287,39.0478296 C24.7226057,44.5046026 31.925254,55.0365079 49.9956459,57.4736431 C49.9150943,59.669743 49.6197388,61.6315025 49.1901306,63.4727452 C36.0870827,64.2427197 21.1179254,56.3019431 19.0638607,42.743705 C19.0437224,42.6231882 18.9967353,42.5294513 18.9564586,42.4223245 C19.9902041,41.2171477 21.191763,40.0923161 22.6618287,39.0478296 Z M15.2510885,66.3651694 C20.9433962,72.4647033 30.6364296,77.2921054 39.8461538,77.2921054 C40.074384,77.2921054 40.2623376,77.2988004 40.490566,77.2921054 C36.1005088,80.7067737 31.4755076,81.9655139 29.5892598,82.1128124 C26.3269239,80.4925201 18.5201383,75.6985947 15.2510885,66.3651694 Z" id="path-1"></path>
    </defs>
    <g id="Circle_Logo" stroke="none" stroke-width="1" fill="none" fill-rule="evenodd" transform="translate(-40.000000, -32.000000)">
        <g id="Group" transform="translate(2.000000, 0.000000)">
            <g id="icons8-bumblebee_filled" transform="translate(38.000000, 32.000000)">
                <mask id="mask-2" fill="white">
                    <use xlink:href="#path-1"></use>
                </mask>
                <use fill="#000000" fill-rule="nonzero" xlink:href="#path-1"></use>
                <g id="Fill/White" mask="url(#mask-2)" fill="#FFFFFF" fill-rule="evenodd">
                    <rect id="Rectangle-2" x="0" y="0" width="74" height="86"></rect>
                </g>
            </g>
        </g>
    </g>
</svg>