<?xml version="1.0" encoding="UTF-8"?>
<svg width="227px" height="221px" viewBox="0 0 227 221" version="1.1" xmlns="http://www.w3.org/2000/svg" xmlns:xlink="http://www.w3.org/1999/xlink">
    <!-- Generator: Sketch 48.2 (47327) - http://www.bohemiancoding.com/sketch -->
    <title>icons8-hornet_hive</title>
    <desc>Created with Sketch.</desc>
    <defs></defs>
    <g id="Web-Empty" stroke="none" stroke-width="1" fill="none" fill-rule="evenodd" transform="translate(-399.000000, -213.000000)">
        <g id="icons8-hornet_hive" transform="translate(399.000000, 213.000000)" fill-rule="nonzero">
            <g id="Group">
                <path d="M86.6184211,218.013514 C80.0294474,218.013514 74.6710526,212.655757 74.6710526,206.067568 C74.6710526,203.511135 75.5252895,201.038324 77.1441579,198.917919 L80.7821316,194.121622 L74.7666316,194.121622 C68.0880526,194.121622 62.7296579,188.763865 62.7296579,182.175676 C62.7296579,179.619243 63.5838947,177.146432 65.2027632,175.026027 L68.8407368,170.22973 L50.7763158,170.22973 C44.1873421,170.22973 38.8289474,164.871973 38.8289474,158.283784 C38.8289474,155.727351 39.6831842,153.254541 41.3020526,151.134135 L44.9340526,146.337838 L35.8421053,146.337838 C27.6103684,146.337838 20.9078947,139.642135 20.9078947,131.405405 C20.9078947,127.779811 22.2937895,124.249784 24.8146842,121.460405 L29.3307895,116.472973 L20.9078947,116.472973 C11.0274211,116.472973 2.98684211,108.433351 2.98684211,98.5540541 C2.98684211,88.6747568 11.0274211,80.6351351 20.9078947,80.6351351 L29.3307895,80.6351351 L24.8146842,75.6477027 C22.2937895,72.8583243 20.9078947,69.3282973 20.9078947,65.7027027 C20.9078947,57.465973 27.6103684,50.7702703 35.8421053,50.7702703 L44.9340526,50.7702703 L41.3020526,45.973973 C39.6831842,43.8535676 38.8289474,41.3807568 38.8289474,38.8243243 C38.8289474,32.2361351 44.1873421,26.8783784 50.7763158,26.8783784 L68.8287895,26.8783784 L65.1908158,22.0820811 C63.5779211,19.9616757 62.7236842,17.4888649 62.7236842,14.9324324 C62.7236842,8.34424324 68.0820789,2.98648649 74.6710526,2.98648649 L152.328947,2.98648649 C158.917921,2.98648649 164.276316,8.34424324 164.276316,14.9324324 C164.276316,17.4888649 163.422079,19.9616757 161.803211,22.0820811 L158.171211,26.8783784 L176.223684,26.8783784 C182.812658,26.8783784 188.171053,32.2361351 188.171053,38.8243243 C188.171053,41.3807568 187.316816,43.8535676 185.697947,45.973973 L182.065947,50.7702703 L191.157895,50.7702703 C199.389632,50.7702703 206.092105,57.465973 206.092105,65.7027027 C206.092105,69.3282973 204.706211,72.8583243 202.185316,75.6477027 L197.669211,80.6351351 L206.092105,80.6351351 C215.972579,80.6351351 224.013158,88.6747568 224.013158,98.5540541 C224.013158,108.433351 215.972579,116.472973 206.092105,116.472973 L197.669211,116.472973 L202.185316,121.460405 C204.706211,124.249784 206.092105,127.779811 206.092105,131.405405 C206.092105,139.642135 199.389632,146.337838 191.157895,146.337838 L182.065947,146.337838 L185.703921,151.134135 C187.322789,153.254541 188.177026,155.733324 188.177026,158.283784 C188.177026,164.871973 182.818632,170.22973 176.229658,170.22973 L158.177184,170.22973 L161.815158,175.026027 C163.434026,177.146432 164.288263,179.625216 164.288263,182.175676 C164.288263,188.763865 158.929868,194.121622 152.340895,194.121622 L146.325395,194.121622 L149.873763,198.917919 C151.492632,201.038324 152.346868,203.517108 152.346868,206.067568 C152.346868,212.655757 146.988474,218.013514 140.3995,218.013514 L86.6184211,218.013514 Z" id="Shape" fill="#FFEEA3"></path>
                <path d="M152.328947,5.97297297 C157.269184,5.97297297 161.289474,9.99278378 161.289474,14.9324324 C161.289474,17.3275946 160.279921,19.1612973 159.425684,20.2842162 L152.155711,29.8648649 L164.186711,29.8648649 L176.223684,29.8648649 C181.163921,29.8648649 185.184211,33.8846757 185.184211,38.8243243 C185.184211,41.2194865 184.174658,43.0531892 183.320421,44.1761081 L176.050447,53.7567568 L188.081447,53.7567568 L191.157895,53.7567568 C197.746868,53.7567568 203.105263,59.1145135 203.105263,65.7027027 C203.105263,68.5876486 201.988184,71.4068919 199.969079,73.6467568 L190.954789,83.6216216 L204.401553,83.6216216 L206.092105,83.6216216 C214.329816,83.6216216 221.026316,90.3232973 221.026316,98.5540541 C221.026316,106.784811 214.329816,113.486486 206.092105,113.486486 L204.401553,113.486486 L190.954789,113.486486 L199.969079,123.461351 C201.988184,125.701216 203.105263,128.520459 203.105263,131.405405 C203.105263,137.993595 197.746868,143.351351 191.157895,143.351351 L188.081447,143.351351 L176.050447,143.351351 L183.326395,152.932 C184.174658,154.054919 185.184211,155.888622 185.184211,158.283784 C185.184211,163.223432 181.163921,167.243243 176.223684,167.243243 L164.186711,167.243243 L152.155711,167.243243 L159.431658,176.823892 C160.279921,177.946811 161.289474,179.780514 161.289474,182.175676 C161.289474,187.115324 157.269184,191.135135 152.239342,191.135135 L140.208342,191.135135 L147.484289,200.715784 C148.332553,201.838703 149.342105,203.672405 149.342105,206.067568 C149.342105,211.007216 145.321816,215.027027 140.381579,215.027027 L86.6184211,215.027027 C81.6781842,215.027027 77.6578947,211.007216 77.6578947,206.067568 C77.6578947,203.672405 78.6674474,201.838703 79.5216842,200.715784 L86.7020526,191.135135 L74.6710526,191.135135 C69.7308158,191.135135 65.7105263,187.115324 65.7105263,182.175676 C65.7105263,179.780514 66.7200789,177.946811 67.5743158,176.823892 L74.8442895,167.243243 L62.8132895,167.243243 L50.7763158,167.243243 C45.8360789,167.243243 41.8157895,163.223432 41.8157895,158.283784 C41.8157895,155.888622 42.8253421,154.054919 43.6795789,152.932 L50.9495526,143.351351 L38.9185526,143.351351 L35.8421053,143.351351 C29.2531316,143.351351 23.8947368,137.993595 23.8947368,131.405405 C23.8947368,128.520459 25.0118158,125.701216 27.0309211,123.461351 L36.0452105,113.486486 L22.5984474,113.486486 L20.9078947,113.486486 C12.6761579,113.486486 5.97368421,106.784811 5.97368421,98.5540541 C5.97368421,90.3232973 12.6761579,83.6216216 20.9078947,83.6216216 L22.5984474,83.6216216 L36.0452105,83.6216216 L27.0309211,73.6467568 C25.0118158,71.4068919 23.8947368,68.5876486 23.8947368,65.7027027 C23.8947368,59.1145135 29.2531316,53.7567568 35.8421053,53.7567568 L38.9185526,53.7567568 L50.9495526,53.7567568 L43.6795789,44.1761081 C42.8253421,43.0531892 41.8157895,41.2194865 41.8157895,38.8243243 C41.8157895,33.8846757 45.8360789,29.8648649 50.7763158,29.8648649 L62.8132895,29.8648649 L74.8442895,29.8648649 L67.5683421,20.2842162 C66.7200789,19.1612973 65.7105263,17.3275946 65.7105263,14.9324324 C65.7105263,9.99278378 69.7308158,5.97297297 74.6710526,5.97297297 L152.328947,5.97297297 Z M152.328947,0 L74.6710526,0 C66.4572368,0 59.7368421,6.71959459 59.7368421,14.9324324 C59.7368421,18.3011892 60.9136579,21.3832432 62.8132895,23.8918919 L50.7763158,23.8918919 C42.5625,23.8918919 35.8421053,30.6114865 35.8421053,38.8243243 C35.8421053,42.1930811 37.0189211,45.2751351 38.9185526,47.7837838 L35.8421053,47.7837838 C25.9855263,47.7837838 17.9210526,55.8472973 17.9210526,65.7027027 C17.9210526,70.3018919 19.7251053,74.4650541 22.5984474,77.6486486 L20.9078947,77.6486486 C9.40855263,77.6486486 0,87.0560811 0,98.5540541 C0,110.052027 9.40855263,119.459459 20.9078947,119.459459 L22.5984474,119.459459 C19.7251053,122.643054 17.9210526,126.806216 17.9210526,131.405405 C17.9210526,141.260811 25.9855263,149.324324 35.8421053,149.324324 L38.9185526,149.324324 C37.0189211,151.832973 35.8421053,154.915027 35.8421053,158.283784 C35.8421053,166.496622 42.5625,173.216216 50.7763158,173.216216 L62.8132895,173.216216 C60.9136579,175.724865 59.7368421,178.806919 59.7368421,182.175676 C59.7368421,190.388514 66.4572368,197.108108 74.6710526,197.108108 L74.7606579,197.108108 C72.8610263,199.616757 71.6842105,202.698811 71.6842105,206.067568 C71.6842105,214.280405 78.4046053,221 86.6184211,221 L140.381579,221 C148.595395,221 155.315789,214.280405 155.315789,206.067568 C155.315789,202.698811 154.138974,199.616757 152.239342,197.108108 L152.328947,197.108108 C160.542763,197.108108 167.263158,190.388514 167.263158,182.175676 C167.263158,178.806919 166.086342,175.724865 164.186711,173.216216 L176.223684,173.216216 C184.4375,173.216216 191.157895,166.496622 191.157895,158.283784 C191.157895,154.915027 189.981079,151.832973 188.081447,149.324324 L191.157895,149.324324 C201.014474,149.324324 209.078947,141.260811 209.078947,131.405405 C209.078947,126.806216 207.274895,122.643054 204.401553,119.459459 L206.092105,119.459459 C217.591447,119.459459 227,110.052027 227,98.5540541 C227,87.0560811 217.591447,77.6486486 206.092105,77.6486486 L204.401553,77.6486486 C207.274895,74.4650541 209.078947,70.3018919 209.078947,65.7027027 C209.078947,55.8472973 201.014474,47.7837838 191.157895,47.7837838 L188.081447,47.7837838 C189.981079,45.2751351 191.157895,42.1930811 191.157895,38.8243243 C191.157895,30.6114865 184.4375,23.8918919 176.223684,23.8918919 L164.186711,23.8918919 C166.086342,21.3832432 167.263158,18.3011892 167.263158,14.9324324 C167.263158,6.71959459 160.542763,0 152.328947,0 Z" id="Shape" fill="#805F51"></path>
            </g>
            <circle id="Oval" fill="#36404D" cx="113" cy="156" r="18"></circle>
            <path d="M81,191 L93,191 C94.65,191 96,192.35 96,194 C96,195.65 94.65,197 93,197 L81,197 C79.35,197 78,195.65 78,194 C78,192.35 79.35,191 81,191 Z" id="Shape" fill="#805F51"></path>
            <path d="M146,197 L116,197 C114.35,197 113,195.65 113,194 C113,192.35 114.35,191 116,191 L146,191 C147.65,191 149,192.35 149,194 C149,195.65 147.65,197 146,197 Z" id="Shape" fill="#805F51"></path>
            <path d="M158,173 L152,173 C150.35,173 149,171.65 149,170 C149,168.35 150.35,167 152,167 L158,167 C159.65,167 161,168.35 161,170 C161,171.65 159.65,173 158,173 Z" id="Shape" fill="#805F51"></path>
            <path d="M62,167 L80,167 C81.65,167 83,168.35 83,170 C83,171.65 81.65,173 80,173 L62,173 C60.35,173 59,171.65 59,170 C59,168.35 60.35,167 62,167 Z" id="Shape" fill="#805F51"></path>
            <path d="M39,143 L81,143 C82.65,143 84,144.35 84,146 C84,147.65 82.65,149 81,149 L39,149 C37.35,149 36,147.65 36,146 C36,144.35 37.35,143 39,143 Z" id="Shape" fill="#805F51"></path>
            <path d="M188,143 L152,143 C150.35,143 149,144.35 149,146 C149,147.65 150.35,149 152,149 L188,149 C189.65,149 191,147.65 191,146 C191,144.35 189.65,143 188,143 Z" id="Shape" fill="#805F51"></path>
            <path d="M141,120 L27,120 C25.35,120 24,118.65 24,117 C24,115.35 25.35,114 27,114 L141,114 C142.65,114 144,115.35 144,117 C144,118.65 142.65,120 141,120 Z" id="Shape" fill="#805F51"></path>
            <path d="M200,120 L164,120 C162.35,120 161,118.65 161,117 C161,115.35 162.35,114 164,114 L200,114 C201.65,114 203,115.35 203,117 C203,118.65 201.65,120 200,120 Z" id="Shape" fill="#805F51"></path>
            <path d="M200,84 L128,84 C126.35,84 125,82.65 125,81 C125,79.35 126.35,78 128,78 L200,78 C201.65,78 203,79.35 203,81 C203,82.65 201.65,84 200,84 Z" id="Shape" fill="#805F51"></path>
            <path d="M26.9642857,78 L104.035714,78 C105.666071,78 107,79.35 107,81 C107,82.65 105.666071,84 104.035714,84 L26.9642857,84 C25.3339286,84 24,82.65 24,81 C24,79.35 25.3339286,78 26.9642857,78 Z" id="Shape" fill="#805F51"></path>
            <path d="M189,48 L93,48 C91.35,48 90,49.35 90,51 C90,52.65 91.35,54 93,54 L189,54 C190.65,54 192,52.65 192,51 C192,49.35 190.65,48 189,48 Z" id="Shape" fill="#805F51"></path>
            <path d="M39,48 L69,48 C70.65,48 72,49.35 72,51 C72,52.65 70.65,54 69,54 L39,54 C37.35,54 36,52.65 36,51 C36,49.35 37.35,48 39,48 Z" id="Shape" fill="#805F51"></path>
            <path d="M117,24 L69,24 C67.35,24 66,25.35 66,27 C66,28.65 67.35,30 69,30 L117,30 C118.65,30 120,28.65 120,27 C120,25.35 118.65,24 117,24 Z" id="Shape" fill="#805F51"></path>
            <path d="M158,24 L140,24 C138.35,24 137,25.35 137,27 C137,28.65 138.35,30 140,30 L158,30 C159.65,30 161,28.65 161,27 C161,25.35 159.65,24 158,24 Z" id="Shape" fill="#805F51"></path>
        </g>
    </g>
</svg>