<?xml version="1.0" encoding="UTF-8"?>
<svg width="103px" height="113px" viewBox="0 0 103 113" version="1.1" xmlns="http://www.w3.org/2000/svg" xmlns:xlink="http://www.w3.org/1999/xlink">
    <!-- Generator: Sketch 48.2 (47327) - http://www.bohemiancoding.com/sketch -->
    <title>icons8-bumblebee</title>
    <desc>Created with Sketch.</desc>
    <defs></defs>
    <g id="Circle_Logo" stroke="none" stroke-width="1" fill="none" fill-rule="evenodd" transform="translate(-27.000000, -22.000000)">
        <g id="icons8-bumblebee" transform="translate(25.000000, 21.000000)">
            <g id="Group" transform="translate(21.000000, 0.000000)" fill="#FFFFFF" fill-rule="nonzero">
                <path d="M36.3609333,39.259 C28.9549333,39.259 17.2893333,35.5763571 11.3492,29.6300714 C1.91,20.1762143 0.4012,6.04457143 3.61506667,2.82571429 C4.2284,2.21142857 5.97946667,1.55414286 9.0584,1.55414286 C15.3696,1.55414286 24.8088,4.28771429 30.6324,10.2862143 C39.3662667,19.2855 42.4666667,30.2228571 42.4666667,36.8571429 C42.4666667,38.6262857 39.3141333,39.259 36.3609333,39.259 Z" id="Shape"></path>
            </g>
            <g id="Group" fill="#FFFFFF" fill-rule="nonzero">
                <path d="M42.2730322,45 C33.6533537,45 22.8300209,43.9835244 15.5636121,36.0611748 C10.4443536,30.4828797 6.14440254,23.3213467 3.76276078,16.4154728 C1.67776479,10.3628223 1.42067179,5.26196275 3.10731489,3.4230659 C3.94922384,2.50515759 5.64716773,2 7.89319999,2 C13.7357091,2 24.2284938,5.66547278 33.4555899,13.7141117 C43.4200626,22.4034384 53.7207338,31.388467 53.994778,36.7542264 C54.0428064,37.6813754 53.7602866,38.4391117 53.1161415,39.1444842 C52.4296184,39.8929799 52.1781758,41.0727077 51.8900056,42.4372493 C51.7289693,43.2042264 51.4266732,44.6334527 51.1300274,44.9106734 C50.7090729,44.8860315 50.2429153,44.8767908 49.7485057,44.8767908 C48.9970031,44.8767908 48.1748705,44.8983524 47.3216607,44.919914 C45.7338996,44.959957 44.0387809,45 42.2730322,45 Z" id="Shape"></path>
            </g>
            <g id="Group" transform="translate(22.000000, 31.000000)" fill="#FFFFFF" fill-rule="nonzero">
                <path d="M40.8169048,3.07407407 C45.9147619,3.07407407 51.22,5.43803704 55.3707143,9.56037037 C62.6971429,16.8367037 64.0869048,27.2977778 58.4659524,32.8802963 C57.5930952,33.7471852 57.3702381,33.8055926 55.9278571,34.1837037 C55.5657143,34.279 55.1695238,34.3804444 54.7269048,34.5095556 L52.272381,35.2135185 L52.5014286,37.7404074 C52.5819048,38.6042222 52.6190476,39.3112593 52.6190476,39.962963 C52.6190476,62.3514444 33.2985714,76.5997778 22.3197619,79.6738519 C9.91095238,70.4823704 3.0952381,56.4369259 3.0952381,39.962963 C3.0952381,26.7844074 12.3407143,17.2055926 25.5821429,16.6645556 L28.275,16.5538889 L28.535,13.8886667 C28.8228571,10.9406296 29.9835714,8.37992593 31.8933333,6.4862963 C34.1404762,4.25451852 37.2264286,3.07407407 40.8169048,3.07407407 Z M40.8169048,0 C36.5795238,0 32.6269048,1.411 29.705,4.31292593 C27.1947619,6.806 25.8019048,10.0583704 25.4552381,13.5935556 C10.6104762,14.1991481 0,25.0690741 0,39.962963 C0,59.9444444 9.28571429,74.3557037 21.6666667,83 C34.4345238,80.3101852 55.7142857,64.3618889 55.7142857,39.962963 C55.7142857,39.1175926 55.6616667,38.2875926 55.587381,37.4637407 C57.9614286,36.7843704 58.877619,36.8212593 60.657381,35.0567407 C67.4947619,28.2661111 66.1080952,15.8775926 57.5621429,7.39007407 C52.6685714,2.52996296 46.4904762,0 40.8169048,0 Z" id="Shape"></path>
            </g>
            <path d="M84,2 C76.719,2 69,5 69,5 L72,20" id="Shape" stroke="#FFFFFF" stroke-linecap="round"></path>
            <path d="M97,8 C89.719,8 82,11 82,11 L83.2322984,17.3257534" id="Shape" stroke="#FFFFFF" stroke-linecap="round"></path>
            <g id="Group" transform="translate(66.000000, 13.000000)" fill="#FFFFFF" fill-rule="nonzero">
                <path d="M17.3323077,34.4583333 C8.07076923,34.4583333 0.538461538,26.90725 0.538461538,17.6295 C0.538461538,8.35175 8.07384615,0.800666667 17.3323077,0.800666667 C30.7323077,0.800666667 37.4615385,16.9419167 37.4615385,25.98225 C37.4615385,33.854 29.4215385,34.4614167 18.0676923,34.4614167 L17.3323077,34.4614167 L17.3323077,34.4583333 Z M12.9662606,7.02521356 C9.97334755,10.0071223 10.3918736,15.8359438 14.2579706,19.6878258 C18.1240675,23.5397079 23.8148177,24.1156903 26.9673126,20.9747864 C30.1198076,17.8338826 29.5416996,12.1640562 25.6756027,8.31217415 C21.8095057,4.46029209 16.1187556,3.88430973 12.9662606,7.02521356 Z" id="Combined-Shape"></path>
            </g>
            <path d="M83.3323077,15.33925 C95.7107692,15.33925 101.923077,30.4938333 101.923077,38.9791667 C101.923077,44.9145833 96.4153846,45.9166667 84.0676923,45.9166667 L83.6984615,45.9166667 L83.3323077,45.9166667 C74.92,45.9166667 68.0769231,39.0593333 68.0769231,30.6295 C68.0769231,22.1996667 74.92,15.33925 83.3323077,15.33925 Z M83.3323077,12.2559167 C73.2092308,12.2559167 65,20.48225 65,30.6295 C65,40.7736667 73.2092308,49 83.3323077,49 C83.5784615,49 83.8215385,49 84.0676923,49 C94.0092308,49 105,48.87975 105,38.9791667 C105,28.8319167 97.5015385,12.2559167 83.3323077,12.2559167 Z" id="Shape" fill="#FFFFFF" fill-rule="nonzero"></path>
            <path d="M58,33.4961429 C59.5273464,46.1724286 70.2777675,56 83.3355961,56 C83.5519156,56 83.7715126,56 83.9878321,56 C84.1123796,52.757 83.2798775,49.2741429 81.5329341,45.9621429 C74.9974646,45.1998571 69.7009157,40.4552857 68.1473487,34.1762857 C66.0169299,33.4172857 63.8373476,33 61.6872633,33 C60.3827915,33 59.166814,33.2037143 58,33.4961429 Z" id="Shape" fill="#FFFFFF" fill-rule="nonzero"></path>
            <path d="M51.1739056,42 C50.8536166,42.9042678 50.5986927,43.8419146 50.4941085,44.849354 L50.2195751,47.4802271 L47.3761933,47.5894675 C45.8629913,47.6471222 44.4086179,47.8291895 43,48.0901527 C48.4547175,60.9228661 60.7891116,70.5329875 75.7838651,73 C75.8426937,72.1958692 75.9244001,71.4069107 75.9244001,70.5845732 C75.9244001,69.9412686 75.885181,69.2433438 75.8034747,68.3876273 L75.5616238,65.8933046 L78.15335,65.1984143 C78.6207104,65.0740016 79.039047,64.9708301 79.4214329,64.8767619 C80.192741,64.6886257 80.6339554,64.5793853 81,64.4064213 C66.7863593,63.46574 55.0304464,54.2925803 51.1739056,42 Z" id="Shape" fill="#FFFFFF" fill-rule="nonzero"></path>
            <path d="M35.1692457,51 C32.203872,52.8333594 29.7715634,55.2758082 28,58.1963923 C36.2066477,74.0296736 51.531469,85.8642824 69.9780723,90 C71.6155714,87.3809152 73.0009021,84.5456036 74,81.4757926 C56.3769343,78.1258004 41.8852266,66.4952366 35.1692457,51 Z" id="Shape" fill="#FFFFFF" fill-rule="nonzero"></path>
            <path d="M64,99.0313405 C47.5385865,94.2104293 33.5109667,84.2060399 24.0259951,71 C24.0227457,71.1843561 24,71.3625669 24,71.5499956 C24,77.6030199 24.9845654,83.3180581 26.8529651,88.5967869 C34.960195,96.0908612 44.6433794,102.04249 55.3956133,106 C58.3298132,104.104205 61.2770106,101.781319 64,99.0313405 Z" id="Shape" fill="#FFFFFF" fill-rule="nonzero"></path>
        </g>
    </g>
</svg>